# xmcd
#
# Track frame offsets:
#	150
#	14948
#	26209
#	39196
#	49558
#	64495
#	77481
#	88143
#	101054
#	112015
#	132126
#	143762
#	155097
#	169358
#	183243
#	196828
#	211088
#	226024
#	240961
#	252148
#
# Disc length: 3536 seconds
#
# Revision: 1
# Processed by: cddbd v1.5.2PL0 Copyright (c) Steve Scherf et al.
# Submitted via: Antz-MP3Processor 1.0.0
#
DISCID=0c0dce14
DTITLE=Various Artist - Those Faboulus Fourties
DYEAR=1900
DGENRE=Jazz
TTITLE0=Charlie Barnet and His Orchestra - Skyliner
TTITLE1=Nat King Cole and the Stan Kenton Orchestra - Orange Coloured Sky
TTITLE2=Benny Goodman and His Orchestra - Bugle Call Rag
TTITLE3=the Four Aces - Pennies From Heaven
TTITLE4=Glen Miller and His Orchestra - Moonlight Serenade
TTITLE5=Les Brown and His Band of Renown (Vocals by the Ames Brothers) - Undecided
TTITLE6=Ink Spots, (The) - It's A Sin to Tell A Lie
TTITLE7=Tommy Dorsey and His Orchestra - Opus One
TTITLE8=Bing Crosby - Swinging on A Star
TTITLE9=Stan Kenton Orchestra, (The) - The Peanut Vendor
TTITLE10=Harry James and His Orchestra - Trumpet Blues and Cantabile
TTITLE11=Louis Jordan and His Tympany Five - Caldonia
TTITLE12=Glen Miller and His Orchestra (Vocals by Tex Beneke and the Modernaires) - I've Got A Gal in Kalamazoo
TTITLE13=Mills Brothers, (The) - Be My Life's Companion
TTITLE14=Nat King Cole Trio - For Sentimental Reasons
TTITLE15=Andrews Sisters, (The) - Hold Tight (Want Some Seefood, Mamma)
TTITLE16=Glen Miller and His Orchestra (Tex Beneke, Paula Kelly and the Modernaires) - Chatanooga Choo Choo
TTITLE17=Marlene Dietrich - Lili Marlene
TTITLE18=Ella Fitzgerald and the Ink Spots - It's Only A Paper Moon
TTITLE19=Vera Lynn - We'll Meet Again
EXTD=
EXTT0=
EXTT1=
EXTT2=
EXTT3=
EXTT4=
EXTT5=
EXTT6=
EXTT7=
EXTT8=
EXTT9=
EXTT10=
EXTT11=
EXTT12=
EXTT13=
EXTT14=
EXTT15=
EXTT16=
EXTT17=
EXTT18=
EXTT19=
PLAYORDER=
